HIERARCHY
ROOT Hips
{
	OFFSET -0.001795 -0.223333 0.028219
	CHANNELS 6 Xposition Yposition Zposition Zrotation Yrotation Xrotation 
	JOINT LeftUpLeg
	{
		OFFSET 0.069520 -0.091406 -0.006815
		CHANNELS 3 Zrotation Yrotation Xrotation
		JOINT LeftLeg
		{
			OFFSET 0.034277 -0.375199 -0.004496
			CHANNELS 3 Zrotation Yrotation Xrotation
			JOINT LeftFoot
			{
				OFFSET -0.013596 -0.397961 -0.043693
				CHANNELS 3 Zrotation Yrotation Xrotation
				JOINT LeftToe
				{
					OFFSET 0.026358 -0.055791 0.119288
					CHANNELS 3 Zrotation Yrotation Xrotation
					End Site
					{
						OFFSET 0.000000 0.000000 0.000000
					}
				}
			}
		}
	}
	JOINT RightUpLeg
	{
		OFFSET -0.067670 -0.090522 -0.004320
		CHANNELS 3 Zrotation Yrotation Xrotation
		JOINT RightLeg
		{
			OFFSET -0.038290 -0.382569 -0.008850
			CHANNELS 3 Zrotation Yrotation Xrotation
			JOINT RightFoot
			{
				OFFSET 0.015774 -0.398415 -0.042312
				CHANNELS 3 Zrotation Yrotation Xrotation
				JOINT RightToe
				{
					OFFSET -0.025372 -0.048144 0.123348
					CHANNELS 3 Zrotation Yrotation Xrotation
					End Site
					{
						OFFSET 0.000000 0.000000 0.000000
					}
				}
			}
		}
	}
	JOINT Spine
	{
		OFFSET -0.002533 0.108963 -0.026696
		CHANNELS 3 Zrotation Yrotation Xrotation
		JOINT Spine1
		{
			OFFSET 0.005487 0.135180 0.001092
			CHANNELS 3 Zrotation Yrotation Xrotation
			JOINT Spine2
			{
				OFFSET 0.001457 0.052922 0.025425
				CHANNELS 3 Zrotation Yrotation Xrotation
				JOINT Neck
				{
					OFFSET -0.002778 0.213870 -0.042857
					CHANNELS 3 Zrotation Yrotation Xrotation
					JOINT Head
					{
						OFFSET 0.005152 0.064970 0.051349
						CHANNELS 3 Zrotation Yrotation Xrotation
						End Site
						{
							OFFSET 0.000000 0.000000 0.000000
						}
					}
				}
				JOINT LeftShoulder
				{
					OFFSET 0.078845 0.121749 -0.034090
					CHANNELS 3 Zrotation Yrotation Xrotation
					JOINT LeftArm
					{
						OFFSET 0.090977 0.030469 -0.008868
						CHANNELS 3 Zrotation Yrotation Xrotation
						JOINT LeftForeArm
						{
							OFFSET 0.259612 -0.012772 -0.027456
							CHANNELS 3 Zrotation Yrotation Xrotation
							JOINT LeftHand
							{
								OFFSET 0.249234 0.008986 -0.001171
								CHANNELS 3 Zrotation Yrotation Xrotation
								End Site
								{
									OFFSET 0.000000 0.000000 0.000000
								}
							}
						}
					}
				}
				JOINT RightShoulder
				{
					OFFSET -0.081759 0.118833 -0.038615
					CHANNELS 3 Zrotation Yrotation Xrotation
					JOINT RightArm
					{
						OFFSET -0.096012 0.032551 -0.009143
						CHANNELS 3 Zrotation Yrotation Xrotation
						JOINT RightForeArm
						{
							OFFSET -0.253742 -0.013329 -0.021401
							CHANNELS 3 Zrotation Yrotation Xrotation
							JOINT RightHand
							{
								OFFSET -0.255298 0.007772 -0.005559
								CHANNELS 3 Zrotation Yrotation Xrotation
								End Site
								{
									OFFSET 0.000000 0.000000 0.000000
								}
							}
						}
					}
				}
			}
		}
	}
}
MOTION
Frames: 14
Frame Time: 0.050000
0.106807 0.890607 0.775862 -1.765013 -5.803722 9.414944 20.642662 2.571481 -26.327511 -10.881653 2.603183 16.041431 8.419137 17.552154 13.940475 0.000000 0.000000 0.000000 -9.711158 1.555681 -32.350446 9.169846 -1.529502 24.076961 -4.284857 -12.427646 4.990441 0.000000 0.000000 0.000000 5.767584 -3.428043 44.548613 -5.085678 1.628800 -25.629653 -5.643490 7.678784 23.553511 19.628161 -4.285921 -43.358211 0.000000 0.000000 0.000000 -11.370370 -35.930964 15.293245 -30.200059 -37.893111 3.774295 29.959451 -57.999095 -14.354469 0.000000 0.000000 0.000000 19.488833 20.199547 11.674798 51.147558 50.187651 16.085330 -2.425356 50.101193 2.218231 0.000000 0.000000 0.000000 
0.104129 0.892015 0.776119 -1.590057 -5.600797 9.522233 20.315179 2.418738 -26.035563 -10.368526 2.379807 15.222992 8.284996 17.373731 14.405938 0.000000 0.000000 0.000000 -9.853896 1.486056 -31.981360 9.384442 -1.592884 23.305707 -4.330290 -12.525452 5.051974 0.000000 0.000000 0.000000 5.909996 -3.504787 44.102300 -5.143289 1.641471 -25.896878 -5.294756 7.579407 23.614913 19.518188 -4.161603 -43.699838 0.000000 0.000000 0.000000 -11.004782 -35.374151 14.950664 -31.005155 -38.753583 4.152448 32.038129 -56.882397 -15.137276 0.000000 0.000000 0.000000 18.718495 20.013358 11.396556 52.605874 51.255083 17.406980 -4.075166 49.039344 1.453219 0.000000 0.000000 0.000000 
0.103036 0.893107 0.777073 -1.462530 -5.563169 9.834695 19.823171 2.307576 -26.246198 -9.647561 2.173380 15.079285 8.255908 17.338237 14.723770 0.000000 0.000000 0.000000 -10.061334 1.437027 -31.871118 9.589074 -1.639450 22.610287 -4.327766 -12.549106 5.165933 0.000000 0.000000 0.000000 6.006658 -3.508601 43.288879 -4.911209 1.593464 -25.781213 -5.230870 7.501957 23.325534 19.323649 -3.967351 -44.136708 0.000000 0.000000 0.000000 -10.796858 -34.615122 14.570177 -32.177531 -39.549235 4.645443 32.670627 -55.814753 -15.084233 0.000000 0.000000 0.000000 18.925675 20.031953 11.436135 52.573732 51.257392 17.402722 -4.064105 48.860608 1.452831 0.000000 0.000000 0.000000 
0.103373 0.892878 0.778498 -1.242606 -5.389569 10.145255 19.270347 2.144707 -26.297729 -9.152104 1.998441 14.590461 8.276636 17.386103 14.489198 0.000000 0.000000 0.000000 -10.365841 1.353076 -31.771859 9.605126 -1.643972 22.057548 -4.430419 -12.697868 4.855061 0.000000 0.000000 0.000000 5.984043 -3.494568 42.627393 -4.714184 1.549426 -26.000625 -4.915385 7.209950 23.191955 19.276043 -3.870795 -44.561572 0.000000 0.000000 0.000000 -11.088102 -33.856251 14.356043 -33.270153 -40.163859 5.086497 33.171303 -54.828822 -14.938550 0.000000 0.000000 0.000000 19.207875 19.822434 11.315736 52.731955 51.145614 17.397585 -3.258858 49.153962 1.827542 0.000000 0.000000 0.000000 
0.105009 0.893006 0.779903 -1.191675 -5.543459 10.548790 19.136269 2.132267 -26.448421 -9.198682 1.999466 14.319181 8.436430 17.611598 14.406024 0.000000 0.000000 0.000000 -10.661757 1.324814 -32.082585 9.770453 -1.678154 21.899575 -4.379818 -12.643005 5.002132 0.000000 0.000000 0.000000 6.119301 -3.519633 42.421213 -4.701253 1.538936 -26.383058 -4.814844 7.248011 23.322995 19.219783 -3.823922 -44.679856 0.000000 0.000000 0.000000 -10.867086 -33.391848 14.114584 -33.715346 -40.899692 5.380605 33.362733 -54.086138 -14.746843 0.000000 0.000000 0.000000 19.203441 19.846382 11.331077 53.135336 51.516735 17.785818 -3.056807 49.266329 1.951924 0.000000 0.000000 0.000000 
0.107723 0.893195 0.780545 -0.948885 -5.645918 10.897627 18.744141 2.072472 -26.801089 -9.276442 2.022340 14.295493 8.567892 17.804295 14.361282 0.000000 0.000000 0.000000 -11.094911 1.248236 -32.117704 9.693139 -1.634504 21.292404 -4.333849 -12.568790 5.050660 0.000000 0.000000 0.000000 6.096390 -3.488038 42.249982 -4.548789 1.505244 -26.302145 -4.765311 7.010993 22.846833 18.861347 -3.621749 -44.934248 0.000000 0.000000 0.000000 -11.265642 -33.084675 14.137953 -34.386839 -41.025028 5.640432 34.022205 -53.965526 -14.979754 0.000000 0.000000 0.000000 19.931439 19.864393 11.425131 52.833889 51.415606 17.580901 -1.526450 49.383008 2.615780 0.000000 0.000000 0.000000 
0.111242 0.893309 0.780287 -0.992183 -5.797880 11.330893 18.500717 2.072940 -27.296259 -9.152713 2.002042 14.362825 8.727410 18.032385 14.236227 0.000000 0.000000 0.000000 -11.387195 1.222210 -32.428493 9.797622 -1.642347 20.870712 -4.249735 -12.498073 5.437669 0.000000 0.000000 0.000000 6.183593 -3.506733 42.243678 -4.569908 1.504155 -26.593479 -4.470516 7.274586 23.017860 18.784054 -3.432257 -45.537680 0.000000 0.000000 0.000000 -10.961785 -32.833324 13.934255 -35.119650 -41.910319 6.078395 34.105494 -54.142672 -15.046462 0.000000 0.000000 0.000000 19.691830 19.767140 11.383936 53.467553 52.190569 18.348220 -1.416346 49.247466 2.698479 0.000000 0.000000 0.000000 
0.115116 0.893418 0.779031 -0.834401 -5.863177 11.649483 17.695603 1.920717 -27.768798 -8.462733 1.826135 14.368812 8.842455 18.205575 14.073764 0.000000 0.000000 0.000000 -11.942767 1.112516 -32.324618 9.962111 -1.652355 19.833417 -4.189961 -12.443261 5.721698 0.000000 0.000000 0.000000 5.999985 -3.421810 42.230035 -4.313856 1.449949 -26.613018 -4.522306 7.438010 22.817413 18.474019 -3.252090 -45.695480 0.000000 0.000000 0.000000 -11.260290 -32.782258 13.966757 -35.582988 -42.076255 6.271999 35.110756 -54.778069 -15.778617 0.000000 0.000000 0.000000 20.059400 19.356348 11.278890 53.903295 52.323600 18.643313 -0.248851 49.305979 3.258322 0.000000 0.000000 0.000000 
0.118604 0.892838 0.777186 -0.733978 -5.795001 11.884989 17.277435 1.834988 -28.118838 -8.284512 1.764551 14.190292 8.909619 18.321654 13.781498 0.000000 0.000000 0.000000 -12.289966 1.040482 -32.574311 9.913028 -1.638637 19.584041 -4.202097 -12.519857 5.930764 0.000000 0.000000 0.000000 5.923286 -3.435644 42.731134 -4.402965 1.467225 -26.655477 -4.438881 7.256583 22.655180 18.430331 -3.236679 -45.647749 0.000000 0.000000 0.000000 -11.789657 -32.684873 14.085530 -35.744586 -41.986046 6.315767 35.523321 -55.685972 -16.265766 0.000000 0.000000 0.000000 19.984297 19.261671 11.183446 53.668176 52.129195 18.429897 0.536365 49.774895 3.651283 0.000000 0.000000 0.000000 
0.121256 0.892799 0.775028 -0.799182 -5.914350 12.211965 17.008512 1.793617 -28.318654 -7.946667 1.653751 13.712804 9.032480 18.498404 13.723857 0.000000 0.000000 0.000000 -12.606921 0.996648 -32.667040 10.229526 -1.686015 18.756432 -4.130602 -12.478078 6.349627 0.000000 0.000000 0.000000 5.644420 -3.296721 42.680089 -4.410908 1.464080 -26.869888 -4.409571 7.465045 22.728519 18.550853 -3.184756 -46.035941 0.000000 0.000000 0.000000 -12.501879 -33.129666 14.457754 -35.340316 -41.651367 6.104454 35.456225 -56.159362 -16.403184 0.000000 0.000000 0.000000 20.080901 18.916658 11.058235 53.256472 51.549359 17.874019 1.544183 50.263416 4.183271 0.000000 0.000000 0.000000 
0.122752 0.892480 0.772752 -0.993688 -5.801704 12.029638 17.068649 1.785781 -28.133354 -7.841679 1.606381 13.432112 8.996199 18.453131 13.511854 0.000000 0.000000 0.000000 -12.414599 1.014712 -32.273463 10.116410 -1.641415 18.207658 -4.133567 -12.484135 6.415077 0.000000 0.000000 0.000000 5.478498 -3.258984 43.011627 -4.366835 1.459771 -26.587075 -4.631172 7.259150 22.456203 18.341952 -3.146313 -45.821354 0.000000 0.000000 0.000000 -12.754170 -33.092434 14.515462 -35.433704 -41.354247 6.076326 35.074473 -56.576099 -16.331055 0.000000 0.000000 0.000000 19.512903 18.814777 10.829358 53.418246 50.922120 17.656439 2.250034 50.766769 4.525972 0.000000 0.000000 0.000000 
0.123435 0.892529 0.770629 -1.250096 -5.818939 12.021863 17.479166 1.882250 -28.033356 -8.129418 1.658546 13.089883 9.008215 18.465753 13.589199 0.000000 0.000000 0.000000 -12.521427 0.997354 -32.311333 10.716058 -1.780334 17.979382 -4.092210 -12.497245 6.870184 0.000000 0.000000 0.000000 5.284277 -3.184197 43.225655 -4.239723 1.433249 -26.782489 -4.719528 7.473475 22.662719 18.559150 -3.147105 -46.115014 0.000000 0.000000 0.000000 -12.894992 -33.391511 14.655487 -34.969080 -41.263650 5.905272 33.920231 -56.789108 -15.794806 0.000000 0.000000 0.000000 19.211872 18.696895 10.762295 52.996210 50.547213 17.246113 1.996006 51.022986 4.448141 0.000000 0.000000 0.000000 
0.123626 0.892804 0.768986 -1.500869 -5.985093 11.734971 17.729160 1.938376 -27.616410 -8.109230 1.648553 12.875494 9.043025 18.492855 13.645354 0.000000 0.000000 0.000000 -12.284363 1.053197 -31.878421 10.829611 -1.774817 17.523790 -3.977901 -12.302220 7.049093 0.000000 0.000000 0.000000 5.021589 -3.022136 43.009116 -4.304384 1.447450 -26.612154 -4.929100 7.627685 22.603741 18.396334 -3.128619 -45.916739 0.000000 0.000000 0.000000 -12.641743 -33.653332 14.687033 -34.910831 -41.049002 5.831853 32.994837 -56.916933 -15.363910 0.000000 0.000000 0.000000 19.018498 18.481247 10.614228 53.174062 50.135887 17.111294 2.234722 50.995393 4.551607 0.000000 0.000000 0.000000 
0.123766 0.893728 0.767858 -1.647286 -6.221515 11.227248 17.816293 1.964975 -27.201091 -8.016067 1.652298 13.148764 9.046736 18.464723 13.859464 0.000000 0.000000 0.000000 -12.431594 1.020966 -31.149585 11.475117 -1.886540 16.951329 -3.801313 -12.023734 7.446142 0.000000 0.000000 0.000000 4.999238 -2.953397 42.864695 -4.663016 1.521880 -26.663352 -5.215994 7.816538 22.707006 18.677816 -3.369374 -45.283450 0.000000 0.000000 0.000000 -12.403616 -33.734313 14.617302 -34.326626 -41.521469 5.801227 31.058432 -56.230712 -14.131529 0.000000 0.000000 0.000000 18.748906 18.321408 10.477860 53.247981 50.054089 17.103555 1.475424 51.034851 4.201492 0.000000 0.000000 0.000000 
